<svg xmlns="http://www.w3.org/2000/svg" viewBox="0 0 400 300" width="406" height="306" class="illustration styles_illustrationTablet__1DWOa"><g id="_131_world_connection_outline" data-name="#131_world_connection_outline"><path d="M286.23,145.43a80.88,80.88,0,1,1-6-30.55A79.09,79.09,0,0,1,284.35,128a75.79,75.79,0,0,1,1.55,10.17Q286.23,141.78,286.23,145.43Z" fill="#1876D2"></path><path d="M205.15,227.5a81.87,81.87,0,0,1-42.63-11.92,83,83,0,0,1-26.06-25.21A82.08,82.08,0,1,1,281.19,114.5a80.44,80.44,0,0,1,4.13,13.33,77.11,77.11,0,0,1,1.57,10.3c.22,2.39.34,4.85.34,7.3A82.17,82.17,0,0,1,205.15,227.5Zm0-162.15a80.08,80.08,0,1,0,80.08,80.08c0-2.39-.11-4.79-.33-7.13a74.84,74.84,0,0,0-1.53-10,78.36,78.36,0,0,0-4-13,80.17,80.17,0,0,0-74.19-49.91Z" fill="#093f68"></path><path d="M217.39,212c-1.36,1.36-1.71,3.39-2.35,5.21s-2,3.72-3.91,3.75c-1.76,0-3.15-1.59-3.66-3.28a41,41,0,0,1-.72-5.22c-.31-1.82-1.06-3.6-.87-5.43.45-4.49,6.26-8.16,4.42-12.28-.6-1.35-2-2.43-1.94-3.91a11.54,11.54,0,0,1,.56-2c.77-3.45-3.55-5.51-6-8-3.62-3.72-3.39-9.61-2.84-14.77.58-5.53,1.59-11.69,6.05-15,4.71-3.52,11.32-2.44,17-.86a2.7,2.7,0,0,1,1.64.92c.84,1.25-.7,3.09.06,4.4,1,1.68,3.43.08,5.35-.14,4.37-.51,6.36,7,10.74,6.69,1.05-.08,2.14-.62,3.11-.21s1.33,1.6,2.13,2.29c2.39,2.09,7.23-1,8.91,1.67a4.48,4.48,0,0,1,.47,1.28c.85,3.47,1.21,8-1.89,9.76-1.17.67-2.71.83-3.49,1.93-1.25,1.75.47,4.22-.07,6.31a5.36,5.36,0,0,1-1.72,2.42,22,22,0,0,1-5.89,3.83,7.71,7.71,0,0,0-2.25,1.24c-1.12,1-1.4,2.7-2.25,4a10,10,0,0,1-2.24,2.17,91.5,91.5,0,0,0-9.22,7.55C223.75,209,220,209.45,217.39,212Z" fill="#70cc40"></path><path d="M211.09,222c-2.31,0-4-2.06-4.58-4a16,16,0,0,1-.53-3.38c0-.69-.11-1.33-.21-2s-.24-1.11-.38-1.66a11.78,11.78,0,0,1-.51-4c.22-2.16,1.46-4,2.65-5.85,1.45-2.18,2.69-4.06,1.86-5.92a7.55,7.55,0,0,0-.76-1.22,4.12,4.12,0,0,1-.9-4.69,5.89,5.89,0,0,0,.21-.68c.41-1.8-1.1-3.18-3.45-5.1a26.36,26.36,0,0,1-2.3-2c-3.77-3.89-3.73-9.78-3.12-15.58s1.65-12.12,6.45-15.71c5.18-3.87,12.26-2.58,17.85-1a3,3,0,0,1,2.4,4.33c-.14.59-.28,1.16-.1,1.46s.89.29,2.37-.16a10.78,10.78,0,0,1,2-.48c2.72-.32,4.6,1.78,6.26,3.64,1.46,1.62,2.83,3.16,4.52,3a6.72,6.72,0,0,0,.91-.16,4.25,4.25,0,0,1,2.66,0,4.16,4.16,0,0,1,1.74,1.65,4.69,4.69,0,0,0,.65.81c.81.7,2.21.55,3.7.39,2-.21,4.19-.45,5.41,1.5a5.46,5.46,0,0,1,.59,1.57c1.34,5.46.52,9.21-2.36,10.87a10.18,10.18,0,0,1-1.45.64,3.64,3.64,0,0,0-1.73,1c-.45.64-.27,1.58-.05,2.68a7.31,7.31,0,0,1,.13,3.3,6.19,6.19,0,0,1-2,2.91,22.53,22.53,0,0,1-6.15,4l-.31.13a5.92,5.92,0,0,0-1.67.94,5.57,5.57,0,0,0-1.17,2,10.69,10.69,0,0,1-.93,1.81,10.93,10.93,0,0,1-2.46,2.4l-2.17,1.66a63.65,63.65,0,0,0-7,5.81,17,17,0,0,1-5,3.23,14.72,14.72,0,0,0-4.12,2.6h0a8.26,8.26,0,0,0-1.7,3.53c-.14.44-.27.88-.42,1.3-1,2.73-2.77,4.38-4.83,4.42Zm3-72.35a12,12,0,0,0-7.36,2.15c-4.16,3.11-5.1,9-5.66,14.32s-.64,10.68,2.56,14c.62.62,1.35,1.22,2.13,1.86,2.28,1.85,4.85,3.95,4.14,7.09a7.35,7.35,0,0,1-.28.91,3.69,3.69,0,0,0-.25,1,3.42,3.42,0,0,0,.9,1.9,9.3,9.3,0,0,1,1,1.56c1.28,2.87-.4,5.4-2,7.85-1.06,1.61-2.16,3.27-2.33,4.94a10.11,10.11,0,0,0,.46,3.36c.15.58.3,1.19.41,1.8s.18,1.45.24,2.15a13.79,13.79,0,0,0,.44,3c.4,1.29,1.44,2.6,2.7,2.57s2.45-1.61,3-3.09c.14-.4.27-.81.4-1.22a9.87,9.87,0,0,1,2.2-4.36,16.51,16.51,0,0,1,4.65-3,15.6,15.6,0,0,0,4.44-2.85,64.55,64.55,0,0,1,7.16-6l2.15-1.65a9.16,9.16,0,0,0,2-1.94,9.42,9.42,0,0,0,.76-1.49,7.38,7.38,0,0,1,1.64-2.64,7.46,7.46,0,0,1,2.24-1.3l.29-.13a20.84,20.84,0,0,0,5.61-3.65,4.43,4.43,0,0,0,1.43-1.93,5.87,5.87,0,0,0-.16-2.42c-.27-1.35-.57-2.88.38-4.22a5.25,5.25,0,0,1,2.65-1.71,7,7,0,0,0,1.16-.51c2.57-1.47,2.19-5.51,1.41-8.65a3.39,3.39,0,0,0-.34-1c-.52-.84-1.67-.77-3.5-.57s-3.76.41-5.22-.87a6.2,6.2,0,0,1-1-1.18,2.56,2.56,0,0,0-.88-.95,2.63,2.63,0,0,0-1.44.09A7.58,7.58,0,0,1,241,163c-2.68.19-4.52-1.87-6.16-3.7-1.47-1.64-2.86-3.18-4.54-3a11,11,0,0,0-1.65.41c-1.53.47-3.62,1.11-4.69-.76a3.83,3.83,0,0,1-.11-2.91c.14-.6.28-1.16.09-1.44a2.32,2.32,0,0,0-1.08-.51A33.73,33.73,0,0,0,214.08,149.65ZM217.39,212h0Z" fill="#093f68"></path><path d="M196.72,149c-3-3-7-4.83-10.91-6.6a5.9,5.9,0,0,0-2.33-.68,10,10,0,0,0-2.54.62c-5.21,1.41-10.12-3.49-12-8.55s-2.26-10.75-5.16-15.3c-2.35-3.69-5.35-8.21-1.68-12.28a31,31,0,0,0,2.56-2.57c2.9-4.06-1.36-10.47,1.63-14.45,1-1.36,2.77-2.18,3.38-3.77s-.22-3.5-.57-5.26C167.68,73.21,177,77,179.78,79c2.34,1.63,4.09,4.13,6.71,5.26,2.9,1.25,6.31.53,9.08-1a3.07,3.07,0,0,1,1.77-.58c1.36.16,1.71,2,1.39,3.33s-.95,2.77-.3,4c.74,1.37,2.68,1.51,3.84,2.55,1.4,1.25,1.34,3.39,1.56,5.25s1.34,4.08,3.21,3.93c1.22-.09,2.09-1.19,3.13-1.84s2.88-.53,3,.69a2.24,2.24,0,0,1-.15.88l-4.91,15.63a5,5,0,0,1-5,4.44q-7.42,1.45-14.69,3.57a10.13,10.13,0,0,0-4.52,2.23c-1.19,1.22-1.67,3.3-.59,4.62,1.58-.39,2.82,1.48,3,3.11.25,2.46,0,3.72,1.87,5.58a24,24,0,0,0,5.39,3.63,20.3,20.3,0,0,1,6.3,5c1.41,1.87,2.66,5,1.53,7.28-1-.7-1.18-2.3-1.69-3.38A14.81,14.81,0,0,0,196.72,149Z" fill="#70cc40"></path><path d="M201.41,157.55a1.06,1.06,0,0,1-.57-.17,5.1,5.1,0,0,1-1.66-2.78,7.57,7.57,0,0,0-.37-1,13.88,13.88,0,0,0-2.79-3.91h0c-3-2.92-6.85-4.68-10.63-6.4a5,5,0,0,0-1.91-.59A5.27,5.27,0,0,0,182,143c-.26.08-.52.17-.79.24-5.74,1.56-11.1-3.55-13.23-9.15a53.54,53.54,0,0,1-1.75-6c-.82-3.29-1.6-6.4-3.32-9.09l-.11-.18c-2.36-3.69-5.58-8.74-1.46-13.31a13.35,13.35,0,0,1,1.16-1.11,9.47,9.47,0,0,0,1.33-1.37c1.21-1.7.92-4,.6-6.5-.35-2.77-.71-5.64,1-8a10.16,10.16,0,0,1,1.6-1.61A5.62,5.62,0,0,0,168.71,85a5.55,5.55,0,0,0-.28-3.29c-.12-.48-.25-1-.35-1.41-.53-2.69.42-4,1.31-4.54,2.94-1.93,9.15,1.1,11,2.36a24,24,0,0,1,2.7,2.29,13.91,13.91,0,0,0,3.84,2.87c2.3,1,5.29.65,8.2-.94a3.9,3.9,0,0,1,2.37-.69,2.42,2.42,0,0,1,1.74,1.06,4.58,4.58,0,0,1,.5,3.5c-.06.25-.14.51-.21.76a3.62,3.62,0,0,0-.18,2.49A3.35,3.35,0,0,0,201,90.64a7.29,7.29,0,0,1,2,1.14c1.46,1.31,1.64,3.27,1.79,5q0,.47.09.9c.15,1.28.91,3.14,2.14,3a3.38,3.38,0,0,0,1.66-.94,11.69,11.69,0,0,1,1-.75,3.58,3.58,0,0,1,3.32-.25,2.07,2.07,0,0,1,1.2,1.69,3.2,3.2,0,0,1-.19,1.28l-4.9,15.63a7.57,7.57,0,0,1-2,3.65,7.77,7.77,0,0,1-3.76,1.48c-4.9,1-9.81,2.14-14.6,3.54a9.38,9.38,0,0,0-4.09,2,2.88,2.88,0,0,0-.78,2.86,2.85,2.85,0,0,1,1.55.54,5.06,5.06,0,0,1,1.91,3.51c0,.43.07.82.1,1.18.13,1.67.19,2.51,1.48,3.81a20.78,20.78,0,0,0,4.47,3.06l.71.41a20.68,20.68,0,0,1,6.6,5.28c1.74,2.3,2.92,5.78,1.63,8.33a1,1,0,0,1-.64.52A1.07,1.07,0,0,1,201.41,157.55Zm-4-9.28a15.92,15.92,0,0,1,2.95,4,9.83,9.83,0,0,0-1.3-2.39,14.48,14.48,0,0,0-3.37-3.11,20.42,20.42,0,0,1,1.72,1.51Zm-14-7.57h0a6.67,6.67,0,0,1,2.74.77c1.09.5,2.22,1,3.36,1.57a14.15,14.15,0,0,1-2.1-1.71,6.63,6.63,0,0,1-2.06-5.07c0-.35-.06-.72-.1-1.12a3.13,3.13,0,0,0-1.07-2.08.76.76,0,0,0-.68-.16,1,1,0,0,1-1-.34c-1.48-1.8-.83-4.44.66-6a10.87,10.87,0,0,1,4.95-2.49c4.85-1.41,9.82-2.62,14.78-3.59a6.06,6.06,0,0,0,2.83-1,5.79,5.79,0,0,0,1.39-2.74l4.9-15.63a1.78,1.78,0,0,0,.11-.48s0-.06-.09-.1a1.63,1.63,0,0,0-1.37.15,9.68,9.68,0,0,0-.84.63,5.07,5.07,0,0,1-2.76,1.37c-2.43.18-4-2.28-4.28-4.81l-.09-1c-.13-1.49-.26-2.89-1.14-3.68a5.91,5.91,0,0,0-1.44-.81,5,5,0,0,1-2.61-2c-.73-1.34-.31-2.81,0-4,.06-.23.13-.47.18-.7a2.57,2.57,0,0,0-.2-1.88.47.47,0,0,0-.33-.22,2.39,2.39,0,0,0-1.09.42c-3.53,1.93-7.16,2.31-10,1.07a15.62,15.62,0,0,1-4.42-3.25,22.52,22.52,0,0,0-2.47-2.11c-2-1.42-7-3.44-8.72-2.33-.55.36-.7,1.19-.44,2.47.08.43.2.85.31,1.28a7.21,7.21,0,0,1,.22,4.53,7.21,7.21,0,0,1-2.21,2.72,8.49,8.49,0,0,0-1.31,1.3c-1.26,1.68-1,4-.65,6.52.34,2.74.7,5.58-1,7.91a11,11,0,0,1-1.63,1.7,11.51,11.51,0,0,0-1,1c-2.88,3.19-1.13,6.53,1.66,10.89l.11.18c1.9,3,2.74,6.38,3.57,9.68a52.25,52.25,0,0,0,1.68,5.81c1.84,4.84,6.4,9.13,10.84,7.93l.69-.21A6.53,6.53,0,0,1,183.47,140.7Z" fill="#093f68"></path><path d="M223.23,79.15l-4.63-.67a2.59,2.59,0,0,0-1.49.08c-.7.34-.94,1.2-1.46,1.77a6.54,6.54,0,0,1-2.47,1.28c-.86.37-1.74,1.1-1.65,2,.12,1.36,1.92,1.65,3.27,1.89a9,9,0,0,1,5,2.69c1.22,1.31,2.41,3.16,4.19,3a24.56,24.56,0,0,0,2.57-.91c1.62-.33,3.11.84,4.63,1.49a7.7,7.7,0,0,0,7.38-.85c3.81-2.78-2.5-6.93-5.2-7.68-1.64-.45-3.56,0-5.09-.84C226.15,81.23,226,79.54,223.23,79.15Z" fill="#70cc40"></path><path d="M234.05,93.36a8.47,8.47,0,0,1-3.29-.65c-.42-.18-.83-.39-1.24-.6a4.61,4.61,0,0,0-2.8-.83,4.34,4.34,0,0,0-.94.37,5.41,5.41,0,0,1-1.73.56c-2,.19-3.33-1.36-4.41-2.61l-.61-.69a8,8,0,0,0-4.4-2.39c-1.51-.26-3.9-.69-4.1-2.78a3.23,3.23,0,0,1,2.26-3l.68-.27a3.56,3.56,0,0,0,1.44-.76,3.87,3.87,0,0,0,.39-.56,3.41,3.41,0,0,1,1.37-1.44,3.55,3.55,0,0,1,2.07-.17l4.63.67h0a6,6,0,0,1,3.77,2.07,7.12,7.12,0,0,0,1.6,1.33,5.54,5.54,0,0,0,2.52.46,9.91,9.91,0,0,1,2.34.28c2.19.61,6.56,3.23,7.07,6.06a3.29,3.29,0,0,1-1.55,3.39A8.66,8.66,0,0,1,234.05,93.36Zm-7-4.12a7.38,7.38,0,0,1,3.34,1.09c.36.19.73.38,1.1.53a6.65,6.65,0,0,0,6.41-.73c.79-.58.82-1.06.75-1.41-.31-1.7-3.63-3.94-5.64-4.49a8.22,8.22,0,0,0-1.87-.21,7.24,7.24,0,0,1-3.45-.73,9,9,0,0,1-2-1.66,4,4,0,0,0-2.63-1.49l-4.63-.67a1,1,0,0,0-1.45.67,4.55,4.55,0,0,1-.61.86,5.3,5.3,0,0,1-2.22,1.3l-.6.23c-.63.27-1.08.71-1,1,0,.58,1.51.83,2.38,1a10,10,0,0,1,5.59,3l.67.76c1.05,1.21,1.81,2,2.7,1.92a3.9,3.9,0,0,0,1.07-.39,6.59,6.59,0,0,1,1.38-.51A4.32,4.32,0,0,1,227.1,89.24Z" fill="#093f68"></path><path d="M284.35,128c-1.25-4.41-2.56-8.83-4.08-13.16a81.07,81.07,0,0,0-18.8-27.77c-.82.1-1.38.78-1.41,2.38,0,2.05,2.05,4.05,2.89,5.76,1.51,3.06.21,3.14-.85,6-.72,1.9.73,3.89,2.18,5.31s3.15,3,3,5c-.16,3.11-4.54,5.45-3.37,8.34.52,1.26,2,1.93,2.52,3.18.74,1.67-.39,3.57-.37,5.4,0,2.12,1.59,3.87,2.72,5.66s1.82,4.38.32,5.89c-.5.51-1.2.83-1.57,1.43-.75,1.2.13,2.73,1,3.85l2.92,3.87a4.05,4.05,0,0,0,1.23,1.21c1.18.63,2.63,0,3.74-.77a26.15,26.15,0,0,0,8.14-8.57,12.25,12.25,0,0,0,1.31-2.85Z" fill="#70cc40"></path><path d="M273.75,151.66a3.13,3.13,0,0,1-1.51-.38,5,5,0,0,1-1.56-1.48l-2.92-3.88c-1.52-2-1.87-3.65-1-5a4.29,4.29,0,0,1,1.17-1.16,5.62,5.62,0,0,0,.53-.44c1.06-1.06.53-3.1-.45-4.65-.22-.36-.47-.72-.71-1.07-1-1.47-2.14-3.13-2.16-5.12a9.52,9.52,0,0,1,.34-2.35,3,3,0,0,0-.92-3.91,5.86,5.86,0,0,1-1.5-1.95c-.86-2.13.46-3.92,1.63-5.5a6.82,6.82,0,0,0,1.67-3.27c.08-1.52-1.29-2.87-2.62-4.16l-.12-.13c-2.92-2.85-2.93-5-2.42-6.37a13.46,13.46,0,0,1,.95-2c.62-1.14.79-1.45-.06-3.18a15.09,15.09,0,0,0-1-1.63c-.94-1.35-2-2.89-2-4.59.05-2.68,1.45-3.25,2.28-3.35a1,1,0,0,1,.82.27,81.42,81.42,0,0,1,19,28.11c1.63,4.64,3,9.31,4.12,13.27a.5.5,0,0,1,0,.12l1.55,10.17a.9.9,0,0,1,0,.43,12.72,12.72,0,0,1-1.42,3.08,27.06,27.06,0,0,1-8.44,8.89A6,6,0,0,1,273.75,151.66ZM261.28,88.33a2.49,2.49,0,0,0-.22,1.18c0,1.06.8,2.25,1.6,3.41a14.19,14.19,0,0,1,1.18,1.89c1.25,2.53.82,3.56,0,5a12.9,12.9,0,0,0-.83,1.73c-.53,1.41.76,3.09,2,4.25l.12.12c1.49,1.45,3.35,3.27,3.21,5.69a8.34,8.34,0,0,1-2.05,4.36c-1.13,1.53-1.8,2.52-1.39,3.56a4.51,4.51,0,0,0,1,1.27,6.36,6.36,0,0,1,1.47,1.87,6.09,6.09,0,0,1,0,3.91,7.83,7.83,0,0,0-.29,1.89c0,1.38.89,2.66,1.81,4,.26.38.51.75.75,1.13,1.31,2.06,2.14,5.16.19,7.12a7,7,0,0,1-.76.64,2.55,2.55,0,0,0-.67.62c-.43.68.27,1.85.93,2.71l2.93,3.88a3.32,3.32,0,0,0,.89.93c.76.4,1.9-.17,2.72-.72a25.1,25.1,0,0,0,7.83-8.25,11.21,11.21,0,0,0,1.15-2.41l-1.5-9.89c-1.11-3.92-2.46-8.53-4.05-13A79.36,79.36,0,0,0,261.28,88.33Z" fill="#093f68"></path><path d="M163,214.73a81.53,81.53,0,0,1-25.74-24.91,12.16,12.16,0,0,1,.93-.84,13.35,13.35,0,0,1,13-2.37c4.62,1.8,7.56,6.26,10.19,10.46,1.08,1.73,2.21,3.71,1.72,5.69-.41,1.63-1.86,2.87-2.21,4.53a6.91,6.91,0,0,0,.77,4C162.14,212.42,162.65,213.56,163,214.73Z" fill="#70cc40"></path><path d="M163,215.73a1,1,0,0,1-.52-.15,83,83,0,0,1-26.06-25.21,1,1,0,0,1,.13-1.26c.32-.32.66-.62,1-.91a14.3,14.3,0,0,1,14-2.52c5.12,2,8.33,7.12,10.67,10.86,1.25,2,2.42,4.14,1.85,6.46a8.44,8.44,0,0,1-1.22,2.48,6.86,6.86,0,0,0-1,2,6.17,6.17,0,0,0,.72,3.38l.29.7c.39.92.79,1.87,1.11,2.83a1,1,0,0,1-.32,1.1A1,1,0,0,1,163,215.73ZM138.6,190A80.79,80.79,0,0,0,161,212.23l-.25-.57a6.28,6.28,0,0,1,.44-7.25,7,7,0,0,0,1-1.89c.38-1.56-.58-3.29-1.6-4.92-2.85-4.54-5.54-8.43-9.71-10.06a12.27,12.27,0,0,0-12,2.21Z" fill="#093f68"></path><path d="M153.67,191.13a1,1,0,0,1-.33-1.94l86.06-30a1,1,0,0,1,.65,1.89l-86.06,30A.89.89,0,0,1,153.67,191.13Z" fill="#fff"></path><path d="M153.67,191.13a1.24,1.24,0,0,1-.27,0,1,1,0,0,1-.7-1.24l23.58-84.3a1,1,0,1,1,1.92.53L154.63,190.4A1,1,0,0,1,153.67,191.13Z" fill="#fff"></path><path d="M239.72,161.16a1,1,0,0,1-.69-.28,1,1,0,0,1,0-1.42l37.08-38.64a1,1,0,0,1,1.41,0,1,1,0,0,1,0,1.42l-37.07,38.64A1,1,0,0,1,239.72,161.16Z" fill="#fff"></path><path d="M216,191.13a1.05,1.05,0,0,1-.62-.21,1,1,0,0,1-.16-1.41l23.74-30a1,1,0,1,1,1.57,1.24l-23.74,30A1,1,0,0,1,216,191.13Z" fill="#fff"></path><path d="M239.72,159.8a1,1,0,0,1-.63-.23L179.5,110.19a1,1,0,0,1,1.27-1.54l57.44,47.6-8-41.55-54.1-7.89a1,1,0,0,1-.86-.91,1,1,0,0,1,.71-1l50.27-15.52a1,1,0,0,1,.81.09,1,1,0,0,1,.47.67l4.4,22.81,43.36,6.32a1,1,0,0,1,.84,1.13,1,1,0,0,1-1.13.85L232.3,115l8.41,43.61a1,1,0,0,1-.48,1A1,1,0,0,1,239.72,159.8Zm-58.95-54.33,49,7.15-4.05-21Z" fill="#fff"></path><circle cx="239.72" cy="160.16" r="5.31" fill="#f56132"></circle><path d="M239.72,166.46a6.31,6.31,0,1,1,6.31-6.3A6.31,6.31,0,0,1,239.72,166.46Zm0-10.61a4.31,4.31,0,1,0,4.31,4.31A4.31,4.31,0,0,0,239.72,155.85Z" fill="#093f68"></path><circle cx="153.67" cy="190.13" r="5.31" fill="#f56132"></circle><path d="M153.67,196.44a6.31,6.31,0,1,1,6.3-6.31A6.32,6.32,0,0,1,153.67,196.44Zm0-10.61a4.31,4.31,0,1,0,4.3,4.3A4.31,4.31,0,0,0,153.67,185.83Z" fill="#093f68"></path><circle cx="217.32" cy="190.13" r="5.31" fill="#ffbc0e"></circle><path d="M217.32,196.44a6.31,6.31,0,1,1,6.3-6.31A6.32,6.32,0,0,1,217.32,196.44Zm0-10.61a4.31,4.31,0,1,0,4.3,4.3A4.31,4.31,0,0,0,217.32,185.83Z" fill="#093f68"></path><circle cx="177.24" cy="105.82" r="5.31" fill="#ffbc0e"></circle><path d="M177.24,112.13a6.31,6.31,0,1,1,6.31-6.31A6.32,6.32,0,0,1,177.24,112.13Zm0-10.61a4.31,4.31,0,1,0,4.31,4.3A4.31,4.31,0,0,0,177.24,101.52Z" fill="#093f68"></path><circle cx="227.93" cy="89.2" r="5.31" fill="#f56132"></circle><path d="M227.93,95.51a6.31,6.31,0,1,1,6.31-6.31A6.32,6.32,0,0,1,227.93,95.51Zm0-10.61a4.31,4.31,0,1,0,4.31,4.3A4.31,4.31,0,0,0,227.93,84.9Z" fill="#093f68"></path><circle cx="276.8" cy="121.51" r="5.31" fill="#ffbc0e"></circle><path d="M276.8,127.82a6.31,6.31,0,1,1,6.31-6.31A6.32,6.32,0,0,1,276.8,127.82Zm0-10.61a4.31,4.31,0,1,0,4.31,4.3A4.31,4.31,0,0,0,276.8,117.21Z" fill="#093f68"></path><path d="M281.65,206.17a37.49,37.49,0,0,1-8.92-1.45c-14.07-3.62-53.74-24.65-90.31-47.86-20.8-13.21-69.21-45.44-69.36-59.45a5.6,5.6,0,0,1,2.48-5.13c6.46-4.17,24,3.87,24.71,4.21a1,1,0,1,1-.84,1.82C134.63,96.09,121.22,91,116.62,94a3.7,3.7,0,0,0-1.56,3.43c.1,9,25.68,30.64,68.43,57.78,36.43,23.12,75.84,44,89.74,47.62,9.66,2.49,11.32,1,11.6.43,1.26-2.4-5.91-10.22-11.15-14.75A1,1,0,1,1,275,187c2.37,2,14.07,12.5,11.61,17.19C285.89,205.5,284.28,206.17,281.65,206.17Z" fill="#093f68"></path><path d="M115.34,180.84a3.61,3.61,0,0,1-1.79-.34c-3-1.81-4.52-4-4.4-6.51.36-7.36,15.2-14.44,15.83-14.74a1,1,0,0,1,1.34.48,1,1,0,0,1-.48,1.33c-4,1.89-14.44,7.91-14.69,13-.08,1.73,1,3.27,3.42,4.69.68.4,6.35,1.39,51.38-18.87,56.39-25.36,121.82-60.3,122.82-65.59a2.42,2.42,0,0,0-.65-2.55c-3.41-3.06-16.59.08-21.38,1.55a1,1,0,0,1-.59-1.91c1.87-.58,18.45-5.49,23.3-1.13a4.44,4.44,0,0,1,1.28,4.42c-1.4,7.41-75.54,45.26-124,67C138.55,174.44,121.29,180.84,115.34,180.84Z" fill="#093f68"></path></g></svg>